<?xml version="1.0" encoding="UTF-8"?>
<!DOCTYPE svg PUBLIC "-//W3C//DTD SVG 1.0//EN" "http://www.w3.org/TR/2001/REC-SVG-20010904/DTD/svg10.dtd">
<!-- Creator: CorelDRAW 2020 (64 Bit) -->
<svg xmlns="http://www.w3.org/2000/svg" xml:space="preserve" width="72px" height="72px" version="1.0" shape-rendering="geometricPrecision" text-rendering="geometricPrecision" image-rendering="optimizeQuality" fill-rule="evenodd" clip-rule="evenodd"
viewBox="0 0 0.96 0.95"
 xmlns:xlink="http://www.w3.org/1999/xlink"
 xmlns:xodm="http://www.corel.com/coreldraw/odm/2003">
 <g id="Conteúdo_x0020_do_x0020_PowerClip">
  <metadata id="CorelCorpID_0Corel-Layer"/>
  <g id="_3031122464816">
   <path fill="#F58634" d="M0.86 0.57c0.03,0 0.05,0.02 0.05,0.04l0 0.2c0,0.08 -0.06,0.14 -0.14,0.14l-0.63 0c-0.08,0 -0.14,-0.06 -0.14,-0.14l0 -0.58c0,-0.08 0.06,-0.14 0.14,-0.14l0.2 0c0.03,0 0.05,0.02 0.05,0.05 0,0.02 -0.02,0.05 -0.05,0.05l-0.2 0c-0.02,0 -0.04,0.01 -0.04,0.04l0 0.58c0,0.03 0.02,0.05 0.04,0.05l0.63 0c0.02,0 0.04,-0.02 0.04,-0.05l0 -0.2c0,-0.02 0.02,-0.04 0.05,-0.04zm0.03 -0.53l0.03 0.02c0.05,0.05 0.05,0.13 0,0.18l-0.4 0.41c-0.01,0 -0.01,0.01 -0.02,0.01l-0.19 0.05c-0.02,0.01 -0.04,0 -0.05,-0.01 -0.01,-0.01 -0.02,-0.03 -0.01,-0.05l0.05 -0.19c0,-0.01 0.01,-0.01 0.01,-0.02l0.4 -0.4c0.05,-0.05 0.13,-0.05 0.18,0z"/>
  </g>
 </g>
</svg>
