<?xml version="1.0" encoding="UTF-8"?>
<!DOCTYPE svg PUBLIC "-//W3C//DTD SVG 1.0//EN" "http://www.w3.org/TR/2001/REC-SVG-20010904/DTD/svg10.dtd">
<!-- Creator: CorelDRAW 2020 (64 Bit) -->
<svg xmlns="http://www.w3.org/2000/svg" xml:space="preserve" width="77px" height="54px" version="1.0" shape-rendering="geometricPrecision" text-rendering="geometricPrecision" image-rendering="optimizeQuality" fill-rule="evenodd" clip-rule="evenodd"
viewBox="0 0 1.17 0.82"
 xmlns:xlink="http://www.w3.org/1999/xlink"
 xmlns:xodm="http://www.corel.com/coreldraw/odm/2003">
 <g id="Camada_x0020_1">
  <metadata id="CorelCorpID_0Corel-Layer"/>
  <path fill="black" d="M1.05 0.82l-0.93 0c-0.03,0 -0.06,-0.01 -0.08,-0.03 -0.03,-0.02 -0.04,-0.05 -0.04,-0.09l0 -0.58c0,-0.03 0.01,-0.06 0.04,-0.08 0.02,-0.03 0.05,-0.04 0.08,-0.04l0.93 0c0.03,0 0.06,0.01 0.08,0.04 0.03,0.02 0.04,0.05 0.04,0.08l0 0.58c0,0.04 -0.01,0.07 -0.04,0.09 -0.02,0.02 -0.05,0.03 -0.08,0.03zm-0.23 -0.43l0.24 0.24 0 -0.45 -0.24 0.21zm-0.71 0.25l0.25 -0.25 -0.25 -0.21 0 0.46zm0.48 -0.19l0.38 -0.34 -0.77 0 0.39 0.34zm0.39 0.26l-0.24 -0.25 -0.13 0.12c-0.01,0.01 -0.02,0.01 -0.03,0l-0.14 -0.12 -0.25 0.25 0.79 0z"/>
 </g>
</svg>
