<?xml version="1.0" encoding="UTF-8"?>
<!DOCTYPE svg PUBLIC "-//W3C//DTD SVG 1.0//EN" "http://www.w3.org/TR/2001/REC-SVG-20010904/DTD/svg10.dtd">
<!-- Creator: CorelDRAW 2020 (64 Bit) -->
<svg xmlns="http://www.w3.org/2000/svg" xml:space="preserve" width="86px" height="72px" version="1.0" shape-rendering="geometricPrecision" text-rendering="geometricPrecision" image-rendering="optimizeQuality" fill-rule="evenodd" clip-rule="evenodd"
viewBox="0 0 1.55 1.29"
 xmlns:xlink="http://www.w3.org/1999/xlink"
 xmlns:xodm="http://www.corel.com/coreldraw/odm/2003">
 <g id="Camada_x0020_1">
  <metadata id="CorelCorpID_0Corel-Layer"/>
  <g id="_1971530054208">
   <g>
    <path fill="#FEFEFE" fill-rule="nonzero" d="M1.06 0.7c-0.03,0 -0.06,0.02 -0.06,0.05l0 0.22c0,0.03 -0.02,0.05 -0.05,0.05l-0.16 0 0 -0.81c0,-0.04 -0.03,-0.08 -0.07,-0.1l-0.02 0 0.25 0c0.03,0 0.05,0.02 0.05,0.05l0 0.16c0,0.03 0.03,0.06 0.06,0.06 0.03,0 0.05,-0.03 0.05,-0.06l0 -0.16c0,-0.09 -0.07,-0.16 -0.16,-0.16l-0.58 0c0,0 0,0 0,0 0,0 -0.01,0 -0.01,0 -0.06,0 -0.11,0.05 -0.11,0.11l0 0.96c0,0.05 0.03,0.09 0.08,0.11l0.32 0.1c0.01,0.01 0.02,0.01 0.03,0.01 0.06,0 0.11,-0.05 0.11,-0.11l0 -0.05 0.16 0c0.09,0 0.16,-0.08 0.16,-0.16l0 -0.22c0,-0.03 -0.02,-0.05 -0.05,-0.05zm0 0z"/>
    <path fill="#FEFEFE" fill-rule="nonzero" d="M1.53 0.5l-0.22 -0.22c-0.01,-0.01 -0.04,-0.02 -0.06,-0.01 -0.02,0.01 -0.03,0.03 -0.03,0.05l0 0.16 -0.22 0c-0.03,0 -0.05,0.03 -0.05,0.06 0,0.03 0.02,0.05 0.05,0.05l0.22 0 0 0.16c0,0.02 0.01,0.04 0.03,0.05 0.02,0.01 0.05,0 0.06,-0.01l0.22 -0.22c0.02,-0.02 0.02,-0.05 0,-0.07l0 0zm0 0z"/>
   </g>
   <rect fill="none" width="1.55" height="1.29"/>
  </g>
 </g>
</svg>
