<?xml version="1.0" encoding="UTF-8"?>
<!DOCTYPE svg PUBLIC "-//W3C//DTD SVG 1.0//EN" "http://www.w3.org/TR/2001/REC-SVG-20010904/DTD/svg10.dtd">
<!-- Creator: CorelDRAW 2020 (64 Bit) -->
<svg xmlns="http://www.w3.org/2000/svg" xml:space="preserve" width="1485px" height="1485px" version="1.0" shape-rendering="geometricPrecision" text-rendering="geometricPrecision" image-rendering="optimizeQuality" fill-rule="evenodd" clip-rule="evenodd"
viewBox="0 0 1485 1484.98"
 xmlns:xlink="http://www.w3.org/1999/xlink"
 xmlns:xodm="http://www.corel.com/coreldraw/odm/2003">
 <g id="Camada_x0020_1">
  <metadata id="CorelCorpID_0Corel-Layer"/>
  <g id="_1719080314544">
   <g>
    <path fill="#FF6600" fill-rule="nonzero" d="M1451.99 1290.45l-306.1 -306.09c73.76,-106.49 110.67,-225.2 110.67,-356.08 0,-85.08 -16.52,-166.44 -49.55,-244.08 -33.02,-77.65 -77.64,-144.58 -133.86,-200.8 -56.23,-56.22 -123.15,-100.85 -200.78,-133.86 -77.66,-33.03 -159.02,-49.54 -244.1,-49.54 -85.07,0 -166.43,16.51 -244.07,49.53 -77.65,33.02 -144.58,77.65 -200.8,133.87 -56.23,56.22 -100.85,123.16 -133.87,200.8 -33.02,77.65 -49.53,159 -49.53,244.08 0,85.07 16.51,166.41 49.53,244.07 33.01,77.64 77.64,144.56 133.87,200.78 56.22,56.24 123.16,100.85 200.8,133.88 77.65,33.02 159,49.52 244.07,49.52 130.91,0 249.6,-36.9 356.1,-110.66l306.1 305.2c21.42,22.6 48.15,33.91 80.31,33.91 30.93,0 57.72,-11.3 80.31,-33.91 22.6,-22.6 33.91,-49.38 33.91,-80.31 0.01,-31.51 -11,-58.3 -33.01,-80.31zm-541.26 -379.75c-78.24,78.25 -172.38,117.37 -282.46,117.37 -110.05,0 -204.2,-39.13 -282.44,-117.37 -78.24,-78.23 -117.36,-172.36 -117.36,-282.44 0,-110.06 39.13,-204.22 117.36,-282.44 78.23,-78.25 172.39,-117.36 282.44,-117.36 110.07,0 204.21,39.13 282.46,117.36 78.25,78.22 117.36,172.38 117.36,282.44 0,110.08 -39.13,204.21 -117.36,282.44z"/>
   </g>
   <g>
   </g>
   <g>
   </g>
   <g>
   </g>
   <g>
   </g>
   <g>
   </g>
   <g>
   </g>
   <g>
   </g>
   <g>
   </g>
   <g>
   </g>
   <g>
   </g>
   <g>
   </g>
   <g>
   </g>
   <g>
   </g>
   <g>
   </g>
   <g>
   </g>
  </g>
 </g>
</svg>
