<?xml version="1.0" encoding="UTF-8"?>
<!DOCTYPE svg PUBLIC "-//W3C//DTD SVG 1.0//EN" "http://www.w3.org/TR/2001/REC-SVG-20010904/DTD/svg10.dtd">
<!-- Creator: CorelDRAW 2020 (64 Bit) -->
<svg xmlns="http://www.w3.org/2000/svg" xml:space="preserve" width="283px" height="283px" version="1.0" shape-rendering="geometricPrecision" text-rendering="geometricPrecision" image-rendering="optimizeQuality" fill-rule="evenodd" clip-rule="evenodd"
viewBox="0 0 12.91 12.91"
 xmlns:xlink="http://www.w3.org/1999/xlink"
 xmlns:xodm="http://www.corel.com/coreldraw/odm/2003">
 <g id="Camada_x0020_1">
  <metadata id="CorelCorpID_0Corel-Layer"/>
  <g id="_3065914330352">
   <circle fill="#C6D93C" cx="6.45" cy="6.45" r="6.45"/>
   <g>
    <path fill="#373435" fill-opacity="0.301961" d="M5.47 6.82l3.76 -3.76c0.23,-0.24 0.61,-0.24 0.85,0l0.97 0.97c0.23,0.23 0.23,0.61 0,0.84l-4.19 4.19 -0.97 0.97c-0.23,0.23 -0.61,0.23 -0.84,0l-0.97 -0.97 -1.86 -1.86c-0.24,-0.24 -0.24,-0.62 0,-0.85l0.97 -0.97c0.23,-0.23 0.61,-0.23 0.84,0l1.44 1.44z"/>
    <path fill="#FEFEFE" d="M5.11 6.64l3.76 -3.76c0.23,-0.23 0.61,-0.23 0.85,0l0.97 0.97c0.23,0.23 0.23,0.61 0,0.84l-4.18 4.19 -0.98 0.97c-0.23,0.23 -0.61,0.23 -0.84,0l-0.97 -0.97 -1.86 -1.86c-0.23,-0.23 -0.23,-0.61 0,-0.85l0.97 -0.97c0.23,-0.23 0.61,-0.23 0.85,0l1.43 1.44z"/>
   </g>
  </g>
 </g>
</svg>
