<?xml version="1.0" encoding="UTF-8"?>
<!DOCTYPE svg PUBLIC "-//W3C//DTD SVG 1.0//EN" "http://www.w3.org/TR/2001/REC-SVG-20010904/DTD/svg10.dtd">
<!-- Creator: CorelDRAW 2020 (64 Bit) -->
<svg xmlns="http://www.w3.org/2000/svg" xml:space="preserve" width="32px" height="32px" version="1.0" shape-rendering="geometricPrecision" text-rendering="geometricPrecision" image-rendering="optimizeQuality" fill-rule="evenodd" clip-rule="evenodd"
viewBox="0 0 601.5 664.67"
 xmlns:xlink="http://www.w3.org/1999/xlink"
 xmlns:xodm="http://www.corel.com/coreldraw/odm/2003">
 <g id="Camada_x0020_1">
  <metadata id="CorelCorpID_0Corel-Layer"/>
  <path d="M437.01 3.67l129.09 0c19.47,0 35.4,16.86 35.4,37.46l0 460.62c0,6.91 -5.33,24.93 -9.2,30.93l-66.4 118.15c-7.48,13.39 -23.8,17.83 -36.45,9.92 -4.36,-2.73 -7.71,-6.56 -9.93,-10.97l-69.27 -118.21c-3.55,-6.08 -8.63,-23.14 -8.63,-29.82l0 -460.62c0,-20.6 15.92,-37.46 35.39,-37.46zm86.44 541.35l-42.82 0 21.86 37.29 20.96 -37.29zm4.75 -488.89l12.32 0 0 445.65 -12.32 0 0 -445.65zm-74.01 0l12.32 0 0 445.65 -12.32 0 0 -445.65zm-350.03 347.4l112.71 0c10.44,0 19.91,4.26 26.76,11.11 6.85,6.85 11.1,16.32 11.1,26.76l0 77.12c0,10.44 -4.25,19.91 -11.1,26.76 -6.85,6.85 -16.32,11.11 -26.76,11.11l-112.71 0c-10.44,0 -19.91,-4.26 -26.76,-11.11 -6.85,-6.85 -11.1,-16.32 -11.1,-26.76l0 -77.12c0,-10.44 4.25,-19.91 11.1,-26.76 6.85,-6.85 16.32,-11.11 26.76,-11.11zm101.36 49.22l-90.01 0 0 54.42 90.01 0 0 -54.42zm88.5 50.6c-13.59,0 -24.61,-11.02 -24.61,-24.61 0,-13.59 11.02,-24.61 24.61,-24.61l82.99 0 0 47.62 0.02 1.6 -83.01 0zm-1.2 -235.36c-13.59,0 -24.61,-11.01 -24.61,-24.6 0,-13.59 11.02,-24.61 24.61,-24.61l84.19 0 0 49.21 -84.19 0zm-249.98 -267.99l349.36 0c-9.43,10.96 -15.19,25.41 -15.19,41.13l0 8.08 0.02 454.14c0,23.2 3.54,33.85 12,47.44l68.54 110.01 -414.73 0c-11.81,0 -22.52,-4.81 -30.28,-12.56 -7.75,-7.75 -12.56,-18.47 -12.56,-30.28l0 -575.12c0,-11.81 4.81,-22.52 12.56,-30.28 7.76,-7.75 18.47,-12.56 30.28,-12.56zm88.41 249.42c-11.57,-7 -15.27,-22.06 -8.26,-33.64 7,-11.57 22.07,-15.27 33.64,-8.26l29.17 17.7 53.78 -80.01c7.54,-11.25 22.78,-14.27 34.03,-6.73 11.25,7.54 14.27,22.77 6.73,34.03l-66.85 99.44 -0.03 -0.02c-7.24,10.83 -21.79,14.14 -33.04,7.33l-49.17 -29.84zm75.22 43.56c2.95,-10.28 12.42,-17.81 23.66,-17.81 13.59,0 24.6,11.02 24.6,24.61 0,11.69 -4.76,22.3 -12.44,29.98 -7.67,7.67 -18.28,12.44 -29.97,12.44l-103.6 0c-11.69,0 -22.3,-4.77 -29.98,-12.44 -7.68,-7.68 -12.44,-18.29 -12.44,-29.98l0 -108.63c0,-11.69 4.76,-22.3 12.44,-29.98 7.68,-7.68 18.28,-12.44 29.98,-12.44l78.31 0c13.59,0 24.61,11.02 24.61,24.61 0,13.59 -11.02,24.6 -24.61,24.6l-71.52 0 0 95.04 90.96 0z"/>
 </g>
</svg>
