<?xml version="1.0" encoding="UTF-8"?>
<!DOCTYPE svg PUBLIC "-//W3C//DTD SVG 1.0//EN" "http://www.w3.org/TR/2001/REC-SVG-20010904/DTD/svg10.dtd">
<!-- Creator: CorelDRAW 2020 (64 Bit) -->
<svg xmlns="http://www.w3.org/2000/svg" xml:space="preserve" width="32px" height="32px" version="1.0" shape-rendering="geometricPrecision" text-rendering="geometricPrecision" image-rendering="optimizeQuality" fill-rule="evenodd" clip-rule="evenodd"
viewBox="0 0 116.99 98.13"
 xmlns:xlink="http://www.w3.org/1999/xlink"
 xmlns:xodm="http://www.corel.com/coreldraw/odm/2003">
 <g id="Camada_x0020_1">
  <metadata id="CorelCorpID_0Corel-Layer"/>
  <path stroke="#373435" stroke-width="0.53" stroke-miterlimit="22.9256" d="M87.07 0.26c9.3,0 16.84,7.54 16.84,16.84 0,9.3 -7.54,16.84 -16.84,16.84 -2.5,0 -4.87,-0.54 -7,-1.52l0 0 0 -0.01c-0.01,-0.08 -0.02,-0.16 -0.03,-0.24l-0.01 -0.08c-0.01,-0.06 -0.01,-0.12 -0.02,-0.17l-0.01 -0.09c-0.01,-0.06 -0.02,-0.11 -0.03,-0.17l-0.01 -0.09 -0.03 -0.15 -0.01 -0.1c-0.01,-0.06 -0.02,-0.12 -0.03,-0.17l-0.02 -0.08c-0.01,-0.07 -0.02,-0.15 -0.04,-0.23l0 -0.02 0 0c-0.02,-0.08 -0.03,-0.16 -0.05,-0.25l-0.01 -0.05c-0.02,-0.06 -0.03,-0.13 -0.04,-0.19l-0.02 -0.08c-0.01,-0.06 -0.03,-0.11 -0.04,-0.17l-0.02 -0.08c-0.01,-0.06 -0.02,-0.11 -0.04,-0.16l-0.02 -0.09c-0.01,-0.05 -0.02,-0.11 -0.04,-0.17l-0.02 -0.07c-0.02,-0.08 -0.04,-0.15 -0.06,-0.23l0 -0.01c-0.02,-0.08 -0.05,-0.16 -0.07,-0.24l-0.01 -0.05c-0.02,-0.06 -0.04,-0.13 -0.06,-0.19l-0.02 -0.08c-0.02,-0.05 -0.03,-0.11 -0.05,-0.16l-0.02 -0.08c-0.02,-0.05 -0.04,-0.11 -0.06,-0.16l-0.02 -0.08c-0.02,-0.05 -0.04,-0.11 -0.05,-0.16l-0.03 -0.07c-0.02,-0.07 -0.04,-0.13 -0.07,-0.2l-0.01 -0.04c-0.03,-0.08 -0.06,-0.15 -0.08,-0.23l-0.03 -0.06c-0.02,-0.06 -0.04,-0.12 -0.06,-0.17l-0.03 -0.07c-0.02,-0.06 -0.04,-0.12 -0.06,-0.17l-0.03 -0.06c-0.02,-0.06 -0.04,-0.12 -0.06,-0.17l-0.03 -0.07c-0.02,-0.06 -0.05,-0.11 -0.07,-0.16l-0.03 -0.07c-0.03,-0.07 -0.06,-0.14 -0.09,-0.21l0 -0.01c-0.04,-0.08 -0.07,-0.16 -0.11,-0.24l0 -0.01c-0.04,-0.07 -0.07,-0.14 -0.1,-0.21l-0.03 -0.06c-0.02,-0.05 -0.05,-0.11 -0.07,-0.16l-0.04 -0.07c-0.02,-0.05 -0.05,-0.1 -0.07,-0.15l-0.04 -0.07c-0.02,-0.05 -0.05,-0.1 -0.07,-0.15l-0.04 -0.08c-0.03,-0.05 -0.06,-0.1 -0.08,-0.16l-0.03 -0.05c-0.04,-0.08 -0.08,-0.15 -0.12,-0.22l-0.01 -0.02c-0.04,-0.07 -0.07,-0.13 -0.11,-0.19l-0.03 -0.06c-0.03,-0.05 -0.06,-0.1 -0.09,-0.16l-0.04 -0.06c-0.02,-0.05 -0.05,-0.1 -0.08,-0.15l-0.04 -0.07c-0.03,-0.05 -0.06,-0.09 -0.09,-0.14l-0.04 -0.07c-0.03,-0.05 -0.07,-0.11 -0.1,-0.16l-0.03 -0.05c-0.04,-0.07 -0.08,-0.14 -0.13,-0.21l-0.01 -0.01c-0.04,-0.06 -0.08,-0.12 -0.12,-0.18l-0.04 -0.07c-0.03,-0.05 -0.06,-0.09 -0.09,-0.14l-0.05 -0.07 -0.09 -0.13 -0.05 -0.07c-0.03,-0.05 -0.06,-0.09 -0.09,-0.13l-0.05 -0.07c-0.04,-0.05 -0.07,-0.1 -0.11,-0.15l-0.03 -0.05c-0.05,-0.06 -0.1,-0.13 -0.15,-0.19l-0.04 -0.05c-0.03,-0.05 -0.07,-0.1 -0.1,-0.14l-0.05 -0.07c-0.03,-0.04 -0.07,-0.09 -0.11,-0.13l-0.04 -0.06 -0.1 -0.13 -0.06 -0.07c-0.03,-0.04 -0.07,-0.08 -0.1,-0.12l-0.05 -0.07c-0.04,-0.04 -0.08,-0.08 -0.11,-0.13l-0.05 -0.05c-0.05,-0.06 -0.1,-0.12 -0.15,-0.18l-0.01 -0.01c-0.05,-0.06 -0.1,-0.12 -0.15,-0.18l-0.06 -0.05c-0.03,-0.04 -0.07,-0.08 -0.1,-0.12l-0.07 -0.08 -0.09 -0.1 -0.08 -0.08c-0.03,-0.03 -0.06,-0.06 -0.09,-0.1l-0.07 -0.07c-0.04,-0.04 -0.08,-0.09 -0.13,-0.13l-0.03 -0.04c-0.06,-0.06 -0.12,-0.12 -0.18,-0.17 -0.06,-0.06 -0.12,-0.12 -0.18,-0.18l0 0c-0.06,-0.06 -0.12,-0.12 -0.18,-0.18l0 0 -0.01 -0.01c-0.06,-0.05 -0.11,-0.1 -0.17,-0.16l-0.02 -0.02c-0.05,-0.05 -0.11,-0.1 -0.16,-0.15l-0.03 -0.02c-0.06,-0.05 -0.11,-0.1 -0.17,-0.15l-0.03 -0.03c-0.05,-0.04 -0.1,-0.09 -0.16,-0.14l-0.03 -0.03c-0.05,-0.04 -0.1,-0.08 -0.15,-0.13l-0.06 -0.05c-0.05,-0.04 -0.09,-0.07 -0.14,-0.11l-0.06 -0.06c-0.04,-0.03 -0.08,-0.06 -0.12,-0.09l-0.09 -0.07 -0.11 -0.09 -0.09 -0.07 -0.11 -0.08 -0.11 -0.09 -0.05 -0.04 -0.02 -0.01c-0.05,-0.04 -0.11,-0.08 -0.16,-0.12l0 -0.01 -0.06 -0.04c-0.04,-0.03 -0.08,-0.06 -0.12,-0.09l0 0 -0.06 -0.04c-0.06,-0.04 -0.12,-0.08 -0.18,-0.13l-0.02 -0.01c-0.28,-0.2 -0.56,-0.39 -0.85,-0.57 0.17,-9.15 7.64,-16.52 16.83,-16.52zm-6.86 34.9c2.26,-0.26 4.7,-0.4 7.34,-0.4 20.09,0 29.17,7.95 29.17,21.71l0 17.99c-6.98,3.69 -14.71,5.26 -23.69,5.57l0 -5.79c0,-8.5 -2.97,-15.25 -9.21,-19.89 -2.64,-1.97 -5.85,-3.5 -9.65,-4.57 0.05,-0.06 0.11,-0.12 0.17,-0.18l0 0c0.06,-0.06 0.11,-0.12 0.17,-0.18l0 0c0.04,-0.04 0.07,-0.09 0.11,-0.13l0.06 -0.06c0.03,-0.03 0.06,-0.07 0.09,-0.11l0.07 -0.07c0.03,-0.04 0.06,-0.07 0.09,-0.11 0.03,-0.02 0.05,-0.05 0.08,-0.08 0.03,-0.04 0.07,-0.08 0.1,-0.12l0.06 -0.07c0.03,-0.04 0.07,-0.08 0.1,-0.12l0.06 -0.07c0.03,-0.03 0.05,-0.07 0.08,-0.1 0.03,-0.03 0.05,-0.07 0.08,-0.1l0.07 -0.08c0.03,-0.04 0.06,-0.08 0.09,-0.12 0.02,-0.03 0.05,-0.06 0.07,-0.09l0.08 -0.1c0.02,-0.03 0.05,-0.07 0.08,-0.1l0.07 -0.1c0.02,-0.03 0.05,-0.07 0.07,-0.1 0.03,-0.03 0.05,-0.07 0.08,-0.1 0.02,-0.04 0.05,-0.08 0.08,-0.12l0.06 -0.08c0.03,-0.04 0.06,-0.08 0.09,-0.12l0.06 -0.09c0.02,-0.03 0.05,-0.07 0.07,-0.11l0.07 -0.09c0.02,-0.04 0.05,-0.07 0.07,-0.11 0.02,-0.03 0.05,-0.07 0.07,-0.1 0.02,-0.04 0.05,-0.08 0.07,-0.12l0.06 -0.09 0.08 -0.11 0.06 -0.1 0.07 -0.12 0.06 -0.09c0.02,-0.04 0.05,-0.08 0.07,-0.12l0.06 -0.1 0.07 -0.12 0.06 -0.1 0.07 -0.11 0.05 -0.1 0.07 -0.12 0.06 -0.11 0.06 -0.11 0.05 -0.1c0.03,-0.04 0.05,-0.09 0.07,-0.13l0.05 -0.09 0.07 -0.13 0.05 -0.1c0.02,-0.04 0.04,-0.08 0.06,-0.13l0.05 -0.09c0.02,-0.05 0.04,-0.09 0.06,-0.14l0.05 -0.09c0.02,-0.04 0.04,-0.09 0.06,-0.13l0.04 -0.1c0.03,-0.04 0.05,-0.09 0.07,-0.13l0.04 -0.1 0.06 -0.13 0.04 -0.11 0.06 -0.12 0.04 -0.11 0.05 -0.12 0.05 -0.11 0.05 -0.13 0.04 -0.1 0.05 -0.14 0.04 -0.1c0.02,-0.05 0.04,-0.09 0.05,-0.14l0.04 -0.09c0.02,-0.05 0.03,-0.1 0.05,-0.15l0.03 -0.09c0.02,-0.05 0.04,-0.1 0.05,-0.15l0.04 -0.1 0.04 -0.14 0.04 -0.1 0.04 -0.14 0.03 -0.1c0.02,-0.05 0.03,-0.1 0.05,-0.15l0.03 -0.1c0.01,-0.05 0.03,-0.09 0.04,-0.14l0.03 -0.1c0.01,-0.05 0.03,-0.1 0.04,-0.15l0.03 -0.09c0.01,-0.05 0.02,-0.11 0.04,-0.16l0.02 -0.09c0.02,-0.05 0.03,-0.11 0.04,-0.16l0.02 -0.09c0.02,-0.05 0.03,-0.1 0.04,-0.15l0.03 -0.11c0.01,-0.05 0.02,-0.1 0.03,-0.15l0.02 -0.08c0.01,-0.06 0.03,-0.12 0.04,-0.18l0.01 -0.06c0.01,-0.06 0.03,-0.13 0.04,-0.19l0.01 -0.07c0.02,-0.06 0.03,-0.12 0.04,-0.18l0.01 -0.09c0.01,-0.05 0.02,-0.11 0.03,-0.16l0.02 -0.1c0.01,-0.05 0.02,-0.11 0.03,-0.16l0.01 -0.07c0.01,-0.07 0.02,-0.13 0.03,-0.19l0.01 -0.06c0,-0.07 0.01,-0.13 0.02,-0.2l0.01 -0.08c0.01,-0.06 0.02,-0.12 0.03,-0.18l0 -0.04c0.01,-0.07 0.02,-0.14 0.03,-0.22l0 -0.06c0.01,-0.07 0.02,-0.13 0.03,-0.2l0 -0.04c0.01,-0.07 0.01,-0.15 0.02,-0.22l0 -0.03c0.02,-0.16 0.03,-0.33 0.04,-0.5l0 0c0,-0.09 0.01,-0.17 0.01,-0.26 0.01,-0.08 0.01,-0.15 0.01,-0.23l0.01 -0.04c0,-0.16 0.01,-0.33 0.01,-0.5l0 -0.03zm-0.08 1.56c0.02,-0.16 0.03,-0.33 0.04,-0.5zm0.01 -0.26c0.01,-0.08 0.01,-0.15 0.01,-0.23zm-51.22 -35.47c9.3,0 16.83,7.54 16.83,16.84 0,0.27 0,0.54 -0.02,0.81 -0.05,0.03 -0.1,0.07 -0.15,0.11l-0.04 0.04c-0.06,0.04 -0.11,0.08 -0.16,0.12l-0.05 0.04c-0.05,0.04 -0.1,0.09 -0.15,0.13l-0.04 0.03c-0.05,0.04 -0.11,0.09 -0.16,0.13l-0.03 0.03c-0.06,0.05 -0.12,0.1 -0.18,0.15l-0.01 0.01 -0.01 0.01c-0.05,0.05 -0.11,0.1 -0.17,0.15l-0.02 0.01c-0.06,0.06 -0.11,0.11 -0.17,0.16l-0.02 0.02c-0.06,0.05 -0.11,0.1 -0.17,0.15l-0.01 0.01 -0.01 0.01c-0.05,0.05 -0.11,0.11 -0.17,0.16l-0.01 0.01 0 0c-0.06,0.06 -0.12,0.12 -0.18,0.17l0 0.01c-0.06,0.06 -0.12,0.12 -0.18,0.18 -0.06,0.05 -0.12,0.11 -0.17,0.17l-0.04 0.04c-0.04,0.04 -0.08,0.08 -0.12,0.12l-0.07 0.07 -0.1 0.11 -0.05 0.06c-0.05,0.05 -0.09,0.09 -0.13,0.14l-0.04 0.03c-0.05,0.06 -0.1,0.12 -0.15,0.17l-0.05 0.06c-0.04,0.04 -0.07,0.09 -0.11,0.13l-0.05 0.06c-0.03,0.04 -0.07,0.07 -0.1,0.12l-0.06 0.06c-0.04,0.05 -0.08,0.1 -0.12,0.15l-0.03 0.03c-0.05,0.06 -0.1,0.12 -0.14,0.18l-0.05 0.06c-0.04,0.04 -0.07,0.09 -0.1,0.13l-0.06 0.07 -0.09 0.11 -0.06 0.08c-0.03,0.04 -0.06,0.08 -0.09,0.12l-0.05 0.07c-0.04,0.06 -0.09,0.12 -0.13,0.18l-0.06 0.07 -0.08 0.12 -0.06 0.08 -0.08 0.11 -0.05 0.09 -0.08 0.11 -0.06 0.08c-0.04,0.06 -0.08,0.12 -0.12,0.18l-0.05 0.08c-0.03,0.04 -0.05,0.08 -0.08,0.12l-0.05 0.09 -0.07 0.11 -0.06 0.09 -0.07 0.11 -0.06 0.1 -0.06 0.1c-0.03,0.06 -0.07,0.12 -0.11,0.18l-0.06 0.1c-0.02,0.04 -0.03,0.07 -0.05,0.1l-0.06 0.1 -0.06 0.12 -0.05 0.08c-0.02,0.04 -0.04,0.08 -0.07,0.12l-0.03 0.06c-0.05,0.1 -0.1,0.19 -0.15,0.28l-0.02 0.04c-0.02,0.05 -0.04,0.09 -0.06,0.13l-0.05 0.09c-0.02,0.04 -0.04,0.08 -0.06,0.12l-0.03 0.08c-0.03,0.04 -0.05,0.09 -0.07,0.14l-0.01 0.02c-0.08,0.17 -0.16,0.34 -0.24,0.51l-0.02 0.06c-0.03,0.05 -0.05,0.1 -0.07,0.15l-0.02 0.05c-0.1,0.24 -0.2,0.48 -0.3,0.73l-0.01 0.03c-0.02,0.06 -0.05,0.12 -0.07,0.17l-0.01 0.04c-0.02,0.06 -0.04,0.12 -0.06,0.17l-0.01 0.02c-0.09,0.26 -0.18,0.52 -0.26,0.78l-0.01 0.02c-0.32,1.01 -0.57,2.04 -0.74,3.11 -2.54,1.54 -5.52,2.43 -8.71,2.43 -9.3,0 -16.84,-7.54 -16.84,-16.84 0,-9.3 7.54,-16.84 16.84,-16.84zm-28.71 74.2l0 -17.99c0,-13.76 9.09,-21.71 29.18,-21.71 2.89,0 5.55,0.16 7.98,0.48 0.04,2.25 0.43,4.41 1.11,6.44l0 0.01c0.05,0.15 0.1,0.31 0.16,0.46l0.01 0.03c0.02,0.07 0.05,0.14 0.08,0.21l0.01 0.03c0.02,0.06 0.05,0.13 0.07,0.2l0.02 0.04c0.03,0.07 0.05,0.13 0.08,0.2l0.02 0.04c0.02,0.06 0.05,0.12 0.07,0.18l0.03 0.06c0.02,0.06 0.05,0.12 0.07,0.18l0.03 0.05c0.02,0.06 0.05,0.12 0.07,0.18l0.03 0.06c0.02,0.06 0.05,0.11 0.08,0.17l0.03 0.07c0.02,0.05 0.05,0.11 0.08,0.16l0.03 0.07c0.02,0.05 0.05,0.1 0.07,0.15l0.04 0.09c0.03,0.04 0.05,0.09 0.07,0.14l0.04 0.08c0.03,0.05 0.06,0.1 0.08,0.15l0.04 0.08c0.03,0.05 0.05,0.1 0.08,0.15l0.04 0.07 0.08 0.15 0.04 0.08c0.03,0.05 0.06,0.09 0.08,0.14l0.05 0.09c0.03,0.04 0.05,0.09 0.08,0.13l0.05 0.08c0.02,0.05 0.05,0.09 0.08,0.14l0.05 0.09 0.08 0.12 0.05 0.1 0.08 0.12 0.06 0.1 0.07 0.11 0.07 0.1c0.02,0.04 0.05,0.08 0.08,0.12l0.05 0.09c0.03,0.04 0.06,0.08 0.09,0.12l0.06 0.09 0.08 0.11 0.07 0.11 0.08 0.1c0.02,0.04 0.04,0.07 0.07,0.1l0.08 0.11 0.07 0.1 0.07 0.1 0.08 0.11 0.08 0.1 0.07 0.09c0.03,0.04 0.06,0.07 0.08,0.11 0.03,0.03 0.06,0.07 0.09,0.1l0.07 0.09c0.03,0.04 0.06,0.07 0.09,0.11 0.02,0.03 0.05,0.06 0.07,0.09l0.09 0.1c0.02,0.03 0.05,0.07 0.08,0.1 0.02,0.03 0.05,0.06 0.08,0.09 0.02,0.03 0.05,0.07 0.08,0.1 0.03,0.03 0.06,0.07 0.09,0.1 0.03,0.03 0.05,0.06 0.08,0.09 0.03,0.04 0.07,0.08 0.1,0.11l0.07 0.08c0.03,0.03 0.06,0.07 0.09,0.1 0.03,0.03 0.05,0.06 0.08,0.09l0.07 0.07c0.03,0.04 0.07,0.08 0.11,0.11l0 0c0.05,0.06 0.11,0.12 0.17,0.18l0 0.01c0.06,0.06 0.12,0.11 0.18,0.17 -3.48,1.06 -6.45,2.52 -8.92,4.36 -6.24,4.64 -9.2,11.39 -9.2,19.89l0 5.69c-10.17,-0.61 -18.65,-2.87 -25.3,-5.47zm58.56 -56.42c9.29,0 16.83,7.54 16.83,16.83 0,9.3 -7.54,16.84 -16.83,16.84 -9.3,0 -16.84,-7.54 -16.84,-16.84 0,-9.29 7.54,-16.83 16.84,-16.83zm-28.71 74.19l0 -17.99c0,-13.76 9.09,-21.71 29.18,-21.71 20.09,0 29.18,7.95 29.18,21.71l0 17.99c-8.37,4.42 -17.81,5.81 -29.18,5.62 -11.9,-0.19 -21.7,-2.69 -29.18,-5.62z"/>
 </g>
</svg>
