<?xml version="1.0" encoding="UTF-8"?>
<!DOCTYPE svg PUBLIC "-//W3C//DTD SVG 1.0//EN" "http://www.w3.org/TR/2001/REC-SVG-20010904/DTD/svg10.dtd">
<!-- Creator: CorelDRAW 2020 (64 Bit) -->
<svg xmlns="http://www.w3.org/2000/svg" xml:space="preserve" width="220px" height="95px" version="1.0" shape-rendering="geometricPrecision" text-rendering="geometricPrecision" image-rendering="optimizeQuality" fill-rule="evenodd" clip-rule="evenodd"
viewBox="0 0 644.96 300.01"
 xmlns:xlink="http://www.w3.org/1999/xlink"
 xmlns:xodm="http://www.corel.com/coreldraw/odm/2003">
 <defs>
    <linearGradient id="id0" gradientUnits="userSpaceOnUse" x1="181.52" y1="146.83" x2="419.27" y2="39.63">
     <stop offset="0" stop-opacity="1" stop-color="#FFF212"/>
     <stop offset="1" stop-opacity="1" stop-color="#FFD326"/>
    </linearGradient>
 </defs>
 <g id="Camada_x0020_1">
  <metadata id="CorelCorpID_0Corel-Layer"/>
  <g id="_1815228852960">
   <path fill="#F58634" fill-rule="nonzero" d="M10.69 278.71c0.59,-3.13 1.36,-6.24 2.32,-9.37 0.97,-3.13 2.19,-6.3 3.63,-9.57 -5.5,-4.93 -9.66,-10.51 -12.45,-16.79 -2.79,-6.26 -4.19,-13.04 -4.19,-20.35 0,-5.63 0.86,-11.08 2.57,-16.37 1.73,-5.27 4.23,-10.09 7.52,-14.43 4.68,-6.22 10.38,-11.01 17.11,-14.39 6.73,-3.4 13.91,-5.09 21.57,-5.09 5.44,0 10.69,0.88 15.73,2.61 5.05,1.74 9.71,4.3 14.03,7.68 6.12,4.8 10.81,10.7 14.09,17.7 3.27,6.98 4.91,14.63 4.91,22.94 0,6.6 -1.28,12.97 -3.83,19.07 -2.54,6.12 -6.14,11.41 -10.76,15.92 -4.12,4.12 -8.82,7.31 -14.07,9.59 -5.27,2.27 -10.51,3.4 -15.74,3.4 -2.25,0 -6.08,-0.57 -11.48,-1.71l-0.13 -0.07 -0.21 1.37c3,0.68 9.64,2.73 19.93,6.22 10.27,3.46 19.09,5.4 26.43,5.78l-5.54 17.16c-8.13,-0.61 -19.45,-4.03 -33.97,-10.22 -1.89,-0.81 -3.31,-1.4 -4.28,-1.8l-0.79 -0.32c-12.45,-5.27 -23.25,-8.26 -32.4,-8.96zm12.81 -55.43c0,8.31 2.44,15.29 7.3,20.89 4.86,5.61 10.85,8.42 17.97,8.42 7.16,0 13.17,-2.79 18.01,-8.37 4.84,-5.61 7.25,-12.59 7.25,-20.94 0,-8.4 -2.41,-15.42 -7.25,-21.03 -4.84,-5.6 -10.85,-8.42 -18.01,-8.42 -7.12,0 -13.11,2.82 -17.97,8.42 -4.86,5.61 -7.3,12.63 -7.3,21.03z"/>
   <path id="1" fill="#F58634" fill-rule="nonzero" d="M149.11 211.66l20.53 0 0 59.44 -19.06 2.84 0 -11.62c-3.22,3.96 -6.58,6.89 -10.11,8.78 -3.52,1.89 -7.37,2.84 -11.55,2.84 -6.29,0 -11.06,-1.8 -14.34,-5.41 -3.27,-3.62 -4.91,-8.89 -4.91,-15.85l0 -41.02 20.66 0 0 35.21c0,3.13 0.64,5.5 1.92,7.1 1.26,1.59 3.15,2.41 5.67,2.41 3.6,0 6.35,-1.22 8.29,-3.67 1.93,-2.44 2.9,-5.95 2.9,-10.52l0 -30.53z"/>
   <path id="2" fill="#F58634" fill-rule="nonzero" d="M201.14 235.84l25.76 -0.79 0 -0.92c0,-3.13 -1.1,-5.69 -3.29,-7.7 -2.21,-2 -4.97,-3.02 -8.31,-3.02 -3.71,0 -6.84,1.09 -9.34,3.27 -2.5,2.18 -4.1,5.24 -4.82,9.16zm39.4 14.05l-2.29 18.26c-4.06,1.91 -8.04,3.35 -11.96,4.28 -3.92,0.92 -7.86,1.37 -11.86,1.37 -9.91,0 -17.88,-2.84 -23.96,-8.53 -6.06,-5.7 -9.1,-13.13 -9.1,-22.27 0,-9.54 3.31,-17.6 9.96,-24.18 6.64,-6.57 14.72,-9.86 24.22,-9.86 8.13,0 14.79,2.41 20.02,7.23 5.2,4.82 7.81,11.05 7.81,18.71 0,1.17 -0.09,3.06 -0.27,5.67l-0.07 0.38 -1.85 2.68 -40.5 1.13c0.32,4.01 1.98,7.27 5,9.77 3.04,2.5 6.87,3.74 11.46,3.74 3.26,0 6.87,-0.7 10.85,-2.12 3.96,-1.4 8.15,-3.49 12.54,-6.26z"/>
   <path id="3" fill="#F58634" fill-rule="nonzero" d="M255 268.4l0 -16.35c5.22,3.33 9.29,5.61 12.2,6.76 2.88,1.17 5.58,1.75 8.04,1.75 2.16,0 3.89,-0.47 5.2,-1.42 1.33,-0.94 1.98,-2.18 1.98,-3.73 0,-1.31 -0.45,-2.41 -1.38,-3.29 -0.92,-0.88 -2.52,-1.71 -4.75,-2.5l-7.65 -2.72c-5,-1.71 -8.8,-4.12 -11.39,-7.23 -2.59,-3.08 -3.88,-6.75 -3.88,-10.99 0,-5.96 2.1,-10.78 6.26,-14.41 4.19,-3.62 9.75,-5.44 16.71,-5.44 3.2,0 6.6,0.45 10.18,1.35 3.58,0.9 7.58,2.31 11.97,4.21l-2.59 14.43c-2.63,-2.23 -5.51,-3.99 -8.64,-5.25 -3.13,-1.28 -6.06,-1.91 -8.78,-1.91 -2.03,0 -3.67,0.47 -4.95,1.42 -1.29,0.94 -1.92,2.14 -1.92,3.58 0,1.23 0.36,2.2 1.08,2.92 0.72,0.72 2.34,1.51 4.84,2.34l7.14 2.57c5.58,1.98 9.59,4.37 11.98,7.18 2.41,2.82 3.6,6.49 3.6,11.04 0,6.55 -2.16,11.73 -6.46,15.53 -4.32,3.81 -10.18,5.7 -17.61,5.7 -3.62,0 -7.16,-0.45 -10.67,-1.35 -3.49,-0.9 -7,-2.3 -10.51,-4.19z"/>
   <path id="4" fill="#F58634" fill-rule="nonzero" d="M315.9 251.15l0 -23.82 -8.65 0 0 -15.67 8.65 0 0 -17.83 21.07 -2.84 0 20.67 14.05 0 0 15.67 -14.05 0 0 25.24c0,5.36 0.72,9.25 2.18,11.64 1.47,2.39 4.21,4.62 8.22,6.62l-23.5 1.62c-2.95,-1.42 -5,-3.51 -6.19,-6.3 -1.2,-2.8 -1.78,-7.79 -1.78,-15z"/>
   <path id="5" fill="#F58634" fill-rule="nonzero" d="M360.07 268.4l0 -16.35c5.22,3.33 9.3,5.61 12.2,6.76 2.88,1.17 5.59,1.75 8.04,1.75 2.16,0 3.9,-0.47 5.2,-1.42 1.33,-0.94 1.98,-2.18 1.98,-3.73 0,-1.31 -0.45,-2.41 -1.37,-3.29 -0.92,-0.88 -2.52,-1.71 -4.75,-2.5l-7.66 -2.72c-4.99,-1.71 -8.8,-4.12 -11.39,-7.23 -2.59,-3.08 -3.87,-6.75 -3.87,-10.99 0,-5.96 2.09,-10.78 6.26,-14.41 4.19,-3.62 9.75,-5.44 16.7,-5.44 3.2,0 6.6,0.45 10.18,1.35 3.58,0.9 7.59,2.31 11.98,4.21l-2.59 14.43c-2.64,-2.23 -5.52,-3.99 -8.65,-5.25 -3.13,-1.28 -6.05,-1.91 -8.78,-1.91 -2.02,0 -3.67,0.47 -4.95,1.42 -1.28,0.94 -1.91,2.14 -1.91,3.58 0,1.23 0.36,2.2 1.08,2.92 0.72,0.72 2.34,1.51 4.84,2.34l7.13 2.57c5.59,1.98 9.59,4.37 11.98,7.18 2.41,2.82 3.6,6.49 3.6,11.04 0,6.55 -2.16,11.73 -6.46,15.53 -4.32,3.81 -10.17,5.7 -17.6,5.7 -3.63,0 -7.16,-0.45 -10.68,-1.35 -3.49,-0.9 -7,-2.3 -10.51,-4.19z"/>
   <path id="6" fill="#F58634" fill-rule="nonzero" d="M441.23 240.71l25.13 0 -12.41 -29.95 -12.72 29.95zm-35.79 30.39l48.78 -98.61 1.45 0 47.7 98.61 -23.88 0 -6.06 -13.91 -38.82 0 -6.19 13.91 -22.98 0z"/>
   <path id="7" fill="#F58634" fill-rule="nonzero" d="M507.7 299.74l0 -88.08 20.66 0c2.08,-0.79 4.1,-1.37 6.13,-1.73 2.02,-0.38 4.1,-0.56 6.21,-0.56 8.56,0 15.63,2.97 21.19,8.89 5.56,5.94 8.35,13.6 8.35,22.96 0,9.71 -2.99,17.59 -9.01,23.58 -5.98,6.01 -13.84,9 -23.5,9 -1.28,0 -2.63,-0.07 -4.1,-0.22 -1.44,-0.16 -3.24,-0.39 -5.4,-0.7l0 23.37 -20.53 3.49zm20.66 -42.33c1.44,0.41 2.71,0.68 3.74,0.86 1.06,0.18 2.03,0.27 2.91,0.27 4,0 7.34,-1.65 10.01,-4.96 2.68,-3.28 4.01,-7.47 4.01,-12.51 0,-4.71 -1.21,-8.6 -3.65,-11.69 -2.43,-3.08 -5.44,-4.61 -9.05,-4.61 -1.1,0 -2.27,0.11 -3.49,0.36 -1.23,0.24 -2.72,0.65 -4.48,1.21l0 31.07z"/>
   <path id="8" fill="#F58634" fill-rule="nonzero" d="M582.42 299.74l0 -88.08 20.67 0c2.07,-0.79 4.1,-1.37 6.12,-1.73 2.03,-0.38 4.1,-0.56 6.22,-0.56 8.55,0 15.62,2.97 21.18,8.89 5.56,5.94 8.35,13.6 8.35,22.96 0,9.71 -2.99,17.59 -9,23.58 -5.99,6.01 -13.85,9 -23.51,9 -1.28,0 -2.63,-0.07 -4.09,-0.22 -1.44,-0.16 -3.25,-0.39 -5.41,-0.7l0 23.37 -20.53 3.49zm20.67 -42.33c1.44,0.41 2.7,0.68 3.74,0.86 1.05,0.18 2.02,0.27 2.9,0.27 4.01,0 7.34,-1.65 10.02,-4.96 2.68,-3.28 4.01,-7.47 4.01,-12.51 0,-4.71 -1.22,-8.6 -3.65,-11.69 -2.43,-3.08 -5.45,-4.61 -9.05,-4.61 -1.1,0 -2.28,0.11 -3.49,0.36 -1.24,0.24 -2.73,0.65 -4.48,1.21l0 31.07z"/>
   <ellipse fill="#FEFEFE" cx="276.38" cy="229.16" rx="15.23" ry="14.55"/>
   <path fill="url(#id0)" d="M221.9 153.96c-42.63,-2.66 -62.32,-27.88 -47.86,-67.96 23.25,-64.45 116.92,-100.95 180.5,-80.15l5.99 2.58c9.78,1.79 15.25,-3.98 34.59,5.08 35.58,16.67 30.66,56.7 2.11,83.93 -45.86,43.75 -82.11,23.23 -113.19,90.56 -4.05,8.77 -3.91,9.43 -6.26,17.84 -2.58,-11.76 -3.47,-19.34 -2.37,-31.91 6.52,-74.48 60.73,-72.77 105.01,-110.75 24.71,-21.19 2.33,-50.7 -19.89,-54.75 -25.06,-4.56 -82.01,28.51 -104.1,43.81 -41.71,28.92 -90.86,69.79 -34.53,101.72z"/>
  </g>
 </g>
</svg>
